<?xml version="1.0" encoding="utf-8"?>
<!-- Generator: Adobe Illustrator 17.0.0, SVG Export Plug-In . SVG Version: 6.00 Build 0)  -->
<!DOCTYPE svg PUBLIC "-//W3C//DTD SVG 1.1//EN" "http://www.w3.org/Graphics/SVG/1.1/DTD/svg11.dtd">
<svg version="1.1" id="Layer_1" xmlns="http://www.w3.org/2000/svg" xmlns:xlink="http://www.w3.org/1999/xlink" x="0px" y="0px"
	 width="512px" height="512px" viewBox="0 0 512 512" enable-background="new 0 0 512 512" xml:space="preserve">
<linearGradient id="SVGID_1_" gradientUnits="userSpaceOnUse" x1="73.1491" y1="315.4299" x2="122.3477" y2="315.4299">
	<stop  offset="1" style="stop-color:#FFFFFF"/>
	<stop  offset="1" style="stop-color:#000000"/>
</linearGradient>
<path fill="url(#SVGID_1_)" d="M74.742,328.078c-2.898,5.781-1.77,12.77,2.797,17.34l3.668,3.668
	c10.598-12.559,22.949-26.188,37.93-41.164c1.059-1.059,2.148-1.57,3.211-2.547L98.75,281.774
	C85.031,306.586,77.031,323.539,74.742,328.078z"/>
<linearGradient id="SVGID_2_" gradientUnits="userSpaceOnUse" x1="162.8906" y1="414.8486" x2="231.25" y2="414.8486">
	<stop  offset="1" style="stop-color:#FFFFFF"/>
	<stop  offset="1" style="stop-color:#000000"/>
</linearGradient>
<path fill="url(#SVGID_2_)" d="M203.988,392.774c-15.016,15.016-28.609,27.391-41.098,37.996l4.969,4.969
	c4.609,4.609,11.664,5.719,17.465,2.734c7.77-4.004,19.988-9.754,45.926-24.199l-24.711-24.711
	C205.563,390.629,205.051,391.715,203.988,392.774z"/>
<linearGradient id="SVGID_3_" gradientUnits="userSpaceOnUse" x1="59.5882" y1="381.9481" x2="200.667" y2="381.9481">
	<stop  offset="1" style="stop-color:#FFFFFF"/>
	<stop  offset="1" style="stop-color:#000000"/>
</linearGradient>
<path fill="url(#SVGID_3_)" d="M195.992,315.938c-10.84-10.84-41.324-1.121-55.645,13.195
	c-47.906,47.906-69.543,81.871-79.258,101.926c-2.785,5.746-1.625,12.625,2.891,17.141c4.523,4.527,11.414,5.676,17.164,2.891
	c19.605-9.52,53.156-31.055,101.633-79.527c15.746-15.754,23.516-45.32,13.227-55.613L195.992,315.938z"/>
<path fill="#FFFDFD" d="M46.82,199.711L4.395,242.137c-4.797,4.797-5.781,12.223-2.383,18.105
	c3.316,5.805,10.262,8.762,16.871,6.992c22.93-6.148,43.105-8.746,56.691-5.262c19.328-34.363,40.098-65.996,62.094-94.73
	C124.945,159.086,82.902,163.629,46.82,199.711z"/>
<linearGradient id="SVGID_4_" gradientUnits="userSpaceOnUse" x1="245.6398" y1="444.2466" x2="347.74" y2="444.2466">
	<stop  offset="1" style="stop-color:#FFFFFF"/>
	<stop  offset="1" style="stop-color:#000000"/>
</linearGradient>
<path fill="url(#SVGID_4_)" d="M253.895,510.391c5.777,2.922,12.773,1.793,17.348-2.785l42.43-42.426
	c32.848-32.855,38.629-75.246,31.176-88.688c-32.047,24.152-64.512,44.547-94.801,61.621c2.09,11.801,0.699,23.25-4.242,56.688
	C244.84,501.274,248.184,507.535,253.895,510.391z"/>
<path fill="#FFFFFF" d="M297.801,150.469c-17.543,17.547-17.543,46.09,0,63.637c17.547,17.547,46.094,17.547,63.641,0
	s17.547-46.09,0-63.637S315.348,132.922,297.801,150.469z"/>
<path fill="#FFFFFF" d="M511.117,14.633c-0.539-7.418-6.445-13.281-13.84-13.836c-36.84-2.773-73.535,1.758-109.504,12.758
	c2.707,24.711,15.488,51.453,37.309,73.273c22.082,22.078,49.551,34.855,74.703,37.246
	C509.473,90.125,514.066,53.766,511.117,14.633z"/>
<linearGradient id="SVGID_5_" gradientUnits="userSpaceOnUse" x1="114.3398" y1="211.342" x2="489.9688" y2="211.342">
	<stop  offset="1" style="stop-color:#FFFFFF"/>
	<stop  offset="1" style="stop-color:#000000"/>
</linearGradient>
<path fill="url(#SVGID_5_)" d="M403.871,108.043c-24.961-24.961-40.203-54.898-45.094-84.047
	C268.703,60.938,182.477,141.61,114.34,254.938l33.852,33.852c23.129-9.391,51.207-11.871,69.016,5.934
	c17.832,17.836,15.305,45.902,5.918,69l34.965,34.965c87.195-52.551,188.711-135.344,231.879-245.496
	C460.109,148.68,429.238,133.41,403.871,108.043z M382.652,235.32c-29.238,29.238-76.82,29.238-106.063,0
	c-29.242-29.242-29.242-76.828,0-106.066s76.824-29.238,106.063,0C411.895,158.496,411.895,206.078,382.652,235.32z"/>
</svg>
